PathFileType	4	(X/Y/Z)	./resultDataOpenSim/trcMotMarkerGrf/sub10/qtm-03-04.trc
DataRate	CameraRate	NumFrames	NumMarkers	Units	OrigDataRate	OrigDataStartFrame	OrigNumFrames
250.000000	250.000000	10	24	m	250.000000	391	520
Frame#	Time	L.Toe.Tip			R.Toe.Tip			L.Ankle.Lat			R.Ankle.Lat			L.Ankle.Med			R.Ankle.Med			L.Heel			R.Heel			L.Knee.Lat			R.Knee.Lat			L.Knee.Med			R.Knee.Med			L.Thigh.Upper			R.Thigh.Upper			L.ASIS			R.ASIS			V.Sacral			L.Acromium			R.Acromium			C7			L.Elbow			R.Elbow			L.Wrist.Lat			R.Wrist.Lat
		X1	Y1	Z1	X2	Y2	Z2	X3	Y3	Z3	X4	Y4	Z4	X5	Y5	Z5	X6	Y6	Z6	X7	Y7	Z7	X8	Y8	Z8	X9	Y9	Z9	X10	Y10	Z10	X11	Y11	Z11	X12	Y12	Z12	X13	Y13	Z13	X14	Y14	Z14	X15	Y15	Z15	X16	Y16	Z16	X17	Y17	Z17	X18	Y18	Z18	X19	Y19	Z19	X20	Y20	Z20	X21	Y21	Z21	X22	Y22	Z22	X23	Y23	Z23	X24	Y24	Z24

391	1.56	0.64869579	0.079071378	-0.15287128	0.82203813	0.038308516	0.02274996	0.57322178	0.19282546	-0.16290073	0.678545	0.054728453	0.053582709	0.60528582	0.19621906	-0.08424252	0.70212786	0.081861396	-0.028930213	0.51075597	0.20850115	-0.10831658	0.62776454	0.03178811	0.006510391	0.83762136	0.4648524	-0.19171863	0.76093098	0.4473649	0.096374568	0.86127015	0.43159706	-0.074038525	0.76763011	0.45590535	-0.031236769	0.73016405	0.828363	-0.21803282	0.74506449	0.86489069	0.16088924	0.79108351	0.94453717	-0.15840699	0.81000247	0.95561641	0.083556046	0.59129025	0.96864186	-0.013498791	0.70892495	1.4326725	-0.17631595	0.71089068	1.4157846	0.14705784	0.62677486	1.4452899	-0.016883559	0.63464675	1.1008195	-0.24848879	0.6335551	1.0684039	0.19532176	0.75501777	0.89210876	-0.27879507	0.79209047	0.89667378	0.27469358
392	1.564	0.6650175	0.078305889	-0.15374836	0.82202079	0.038308754	0.022770542	0.58692412	0.19008412	-0.16333094	0.67848136	0.054825252	0.053546827	0.61929818	0.19387047	-0.084787701	0.70231417	0.081905424	-0.029044187	0.52412394	0.20422278	-0.10876498	0.62789671	0.031884556	0.0063458699	0.84682773	0.46694349	-0.19170063	0.76128047	0.44746553	0.096606156	0.87087277	0.43393777	-0.074144288	0.76837374	0.45581056	-0.030869086	0.73695924	0.82974514	-0.21855843	0.74845921	0.86517808	0.16072674	0.79642409	0.94569858	-0.15802406	0.81376557	0.95623533	0.084103903	0.59548209	0.96956854	-0.014388971	0.71382351	1.433332	-0.17629641	0.7154419	1.4166157	0.1470666	0.63165291	1.4459948	-0.01698176	0.6375915	1.1024332	-0.24892181	0.64020077	1.0686695	0.19663979	0.75496275	0.89221851	-0.28065504	0.80215514	0.89904859	0.2746711
393	1.568	0.68154977	0.077487427	-0.1546477	0.82200403	0.038295476	0.022789583	0.6007238	0.18721333	-0.16375729	0.67844103	0.054909588	0.053499978	0.63312167	0.1914361	-0.085246238	0.70264535	0.081910978	-0.029214847	0.53762063	0.19980727	-0.10921441	0.62812687	0.032014268	0.0061833429	0.85590351	0.46897086	-0.19168372	0.76164625	0.44756775	0.096844732	0.8804795	0.43620592	-0.074248585	0.7691552	0.45572186	-0.030484417	0.74368761	0.83107983	-0.21900732	0.75185804	0.86545593	0.16056395	0.8018695	0.94679324	-0.15761846	0.81760559	0.95676004	0.084619461	0.60030033	0.97053015	-0.015482382	0.7187268	1.4339271	-0.17628859	0.71997332	1.4173881	0.14707657	0.63653194	1.4466413	-0.017085352	0.64051021	1.103952	-0.24933571	0.64702872	1.0688817	0.1979319	0.75506627	0.89235749	-0.28253139	0.8122076	0.90141627	0.27462541
394	1.572	0.6983159	0.0766279	-0.15557258	0.82199044	0.038269624	0.022805898	0.61463308	0.18421685	-0.16418297	0.6784114	0.054988575	0.053448171	0.6468186	0.18893053	-0.085632579	0.70300047	0.081905945	-0.02939266	0.55126753	0.19524514	-0.10967617	0.62838625	0.032187628	0.0060517414	0.86487019	0.47092571	-0.19167905	0.76202383	0.44766912	0.097079369	0.89005117	0.43839716	-0.074363342	0.7698556	0.4556451	-0.030150113	0.75048247	0.8323737	-0.21941125	0.75528491	0.86573173	0.1604012	0.80744691	0.94782411	-0.15718092	0.82152405	0.95717963	0.085093434	0.60554998	0.97138653	-0.016796272	0.72364801	1.434452	-0.17628503	0.7244912	1.4181003	0.14709048	0.64141581	1.4472308	-0.017190906	0.64341469	1.1053665	-0.24970494	0.65405193	1.0690542	0.19923033	0.75534712	0.89251353	-0.28441847	0.82225196	0.90377337	0.27455527
395	1.576	0.71522334	0.075745694	-0.15650039	0.82198471	0.038242041	0.022819253	0.62866577	0.18109932	-0.16460564	0.67838818	0.055067734	0.053393774	0.66036487	0.18635993	-0.085924711	0.70315615	0.081907478	-0.029500486	0.56508993	0.19054224	-0.11018171	0.62858287	0.032385303	0.0059521104	0.87373706	0.47279581	-0.19168764	0.76241036	0.4477638	0.097302697	0.89940666	0.44051041	-0.074524135	0.77037842	0.45559149	-0.029900778	0.75745491	0.83362954	-0.21983206	0.75869503	0.8659913	0.16024168	0.81309861	0.94879371	-0.15672861	0.82547339	0.9575133	0.085533788	0.61080954	0.97201094	-0.018251402	0.72858986	1.434903	-0.17628262	0.72900785	1.4187505	0.14710566	0.64630665	1.4477756	-0.017294265	0.64630674	1.1066796	-0.25003379	0.66120409	1.0691719	0.20054394	0.75578467	0.89266875	-0.28631202	0.83226907	0.90611429	0.2744686
396	1.58	0.73215437	0.074846249	-0.15740628	0.82199205	0.038221212	0.02282882	0.64282929	0.17786913	-0.16502098	0.67836993	0.055149259	0.053336898	0.67379657	0.18371441	-0.086111035	0.70300833	0.081918013	-0.02950166	0.57906807	0.18571434	-0.11075251	0.62866464	0.032565134	0.0058579376	0.88251269	0.47456354	-0.19170789	0.76281278	0.44785142	0.097522095	0.90829595	0.44254393	-0.074785181	0.77077214	0.45556253	-0.029710716	0.76460126	0.83484508	-0.22031374	0.76198619	0.86619815	0.16008936	0.81876935	0.94970529	-0.15628592	0.8294175	0.95778135	0.085954179	0.61574557	0.97241737	-0.019692788	0.73354733	1.4352848	-0.17628936	0.73352747	1.4193375	0.14711774	0.65120177	1.4482798	-0.017387677	0.64918152	1.1079043	-0.25033817	0.66837256	1.0691857	0.20181423	0.75631442	0.8928128	-0.28819786	0.84224305	0.90843608	0.2743721
397	1.584	0.74903755	0.073903844	-0.15829255	0.82201332	0.038197109	0.022830784	0.65711496	0.17454112	-0.16542489	0.67835549	0.055232267	0.053278299	0.68725136	0.18098763	-0.086212952	0.70267748	0.081952779	-0.029428446	0.59319833	0.18076047	-0.11140484	0.62867193	0.032712325	0.0057818013	0.89120467	0.47621539	-0.19173829	0.76324149	0.44793735	0.097750651	0.91664308	0.44449381	-0.075159595	0.7712449	0.45552737	-0.029514295	0.77174367	0.83600212	-0.22081637	0.76511193	0.86632881	0.1599438	0.82443636	0.95055582	-0.15586814	0.83334772	0.95799423	0.08636855	0.62010125	0.97274414	-0.020894424	0.73851837	1.4356008	-0.17630771	0.73804422	1.4198614	0.14712812	0.65609717	1.4487207	-0.017476246	0.65203318	1.109059	-0.25063209	0.67543604	1.0690781	0.202913	0.75684346	0.89295095	-0.29004816	0.85217092	0.91073713	0.27426884
398	1.588	0.76586703	0.072899068	-0.1591805	0.8220385	0.038148916	0.022822731	0.67151026	0.17112467	-0.16582288	0.67834264	0.055315246	0.053220419	0.70086422	0.17818623	-0.086272034	0.70237559	0.082032792	-0.029348872	0.60752353	0.17566493	-0.11208047	0.6287127	0.032856952	0.0058070322	0.89980562	0.4777606	-0.19177168	0.76369753	0.44802462	0.097988236	0.92471797	0.44635359	-0.0755632	0.77194161	0.45543917	-0.029286276	0.77871323	0.83708089	-0.22125454	0.76813933	0.8663937	0.15980336	0.83009935	0.95133121	-0.15547241	0.8372713	0.95815415	0.086785656	0.62349334	0.97315679	-0.021568815	0.74350579	1.4358451	-0.17632731	0.74255651	1.4203212	0.14714111	0.66099154	1.4490709	-0.017582862	0.65485677	1.1101571	-0.25093113	0.68232351	1.0689099	0.20372177	0.75731864	0.89309278	-0.29184734	0.86205466	0.91301567	0.27415347
399	1.592	0.78270862	0.071868408	-0.16007709	0.82204936	0.03807504	0.022812371	0.68601879	0.16761382	-0.16622962	0.67832696	0.055398499	0.053164687	0.71474061	0.1753021	-0.086356597	0.70223161	0.082156853	-0.029304267	0.62208254	0.17042277	-0.11256767	0.62885687	0.033010503	0.0059785459	0.9082906	0.47922606	-0.19179625	0.76417191	0.44810712	0.098219982	0.93296623	0.44811653	-0.075874359	0.77279601	0.45529446	-0.029061276	0.78553789	0.83808166	-0.22159808	0.77115603	0.866414	0.15966767	0.83576172	0.95201699	-0.15509022	0.84119289	0.95825771	0.087203393	0.62568454	0.97372633	-0.0215849	0.74851114	1.4360096	-0.17634381	0.74706807	1.4207148	0.14715435	0.66588341	1.4493278	-0.017725135	0.65764979	1.111201	-0.25125213	0.68912121	1.0687556	0.20427077	0.75779105	0.89323972	-0.29362226	0.87190454	0.91527394	0.27401417
400	1.596	0.79966122	0.070877097	-0.16096745	0.82203647	0.03800479	0.022815428	0.70065515	0.16400205	-0.16665176	0.67830397	0.055483541	0.053108464	0.72895927	0.17231434	-0.086538242	0.70223896	0.082304371	-0.029267247	0.63687384	0.16505347	-0.11266581	0.62905859	0.033122749	0.006185558	0.91663723	0.4806279	-0.19180626	0.76465974	0.44817537	0.098436415	0.9416996	0.4497808	-0.076045595	0.77369687	0.45514154	-0.02885217	0.79230765	0.83901172	-0.22187147	0.77418488	0.86640118	0.15953188	0.84142322	0.95261186	-0.15471894	0.84510611	0.95830067	0.087611914	0.62717025	0.97432441	-0.021266688	0.75353328	1.4360921	-0.1763657	0.75157695	1.4210394	0.1471584	0.67077295	1.449506	-0.017898927	0.66041802	1.1121854	-0.25159758	0.6960423	1.0686174	0.20476215	0.75836806	0.89338796	-0.29541739	0.88174235	0.91751743	0.2738445
